{"title":"Small.Apartments.2012.DVDRiP.XviD.AC3-5.1-LTFS","uid":8148195,"size":1573318395,"categoryP":"video","categoryS":"movies","magnet":"?xt=urn:btih:3c0aaebbd55dc67ccb0b35365fb2b3389a10117d&amp;dn=Small.Apartments.2012.DVDRiP.XviD.AC3-5.1-LTFS&amp;tr=udp%3A%2F%2Ftracker.openbittorrent.com%3A80&amp;tr=udp%3A%2F%2Fopen.demonii.com%3A1337&amp;tr=udp%3A%2F%2Ftracker.coppersurfer.tk%3A6969&amp;tr=udp%3A%2F%2Fexodus.desync.com%3A6969","seeders":2,"leechers":0,"uploader":"Acesn8s","files":-1,"time":1360973348,"description":"\nSmall.Apartments.2012.DVDRip.XviD.AC3-5.1-LTFS\n\nFormat                                   : AVI\nFormat/Info                              : Audio Video Interleave\nFile size                                : 1.47 GiB\nDuration                                 : 1h 36mn\nOverall bit rate                         : 2 184 Kbps\nWriting application                      : VirtualDubMod 1.5.4.1 (build 2178/release)\nWriting library                          : VirtualDubMod build 2178/release\n\nVideo\nID                                       : 0\nFormat                                   : MPEG-4 Visual\nFormat profile                           : Advanced Simple@L5\nFormat settings, BVOP                    : No\nFormat settings, QPel                    : No\nFormat settings, GMC                     : No warppoints\nFormat settings, Matrix                  : Custom\nCodec ID                                 : XVID\nCodec ID/Hint                            : XviD\nDuration                                 : 1h 36mn\nBit rate                                 : 1 730 Kbps\nWidth                                    : 720 pixels\nHeight                                   : 400 pixels\nDisplay aspect ratio                     : 16:9\nFrame rate                               : 23.976 fps\nColor space                              : YUV\nChroma subsampling                       : 4:2:0\nBit depth                                : 8 bits\nScan type                                : Progressive\nCompression mode                         : Lossy\nBits/(Pixel*Frame)                       : 0.250\nStream size                              : 1.16 GiB (79%)\nWriting library                          : XviD 64\n\nAudio\nID                                       : 1\nFormat                                   : AC-3\nFormat/Info                              : Audio Coding 3\nMode extension                           : CM (complete main)\nFormat settings, Endianness              : Big\nCodec ID                                 : 2000\nDuration                                 : 1h 36mn\nBit rate mode                            : Constant\nBit rate                                 : 448 Kbps\nChannel(s)                               : 6 channels\nChannel positions                        : Front: L C R, Side: L R, LFE\nSampling rate                            : 48.0 KHz\nBit depth                                : 16 bits\nCompression mode                         : Lossy\nStream size                              : 308 MiB (21%)\nAlignment                                : Split accross interleaves\nInterleave, duration                     : 96 ms (2.30 video frames)\nInterleave, preload duration             : 96 ms\n\nCast: James Caan ,Dolph Lundgren, Johnny Knoxville \n\nPlot: A man is surrounded by strange events and odd neighbors in this adaptation of Chris Millis' novel. \n\nScreenshots:\n &lt;a href=&quot;\nhttp://www.shotpix.com/images/72652838462801766838.png&quot; rel=&quot;nofollow&quot; target=&quot;_NEW&quot;&gt;\nhttp://www.shotpix.com/images/72652838462801766838.png&lt;/a&gt;\n &lt;a href=&quot;\nhttp://www.shotpix.com/images/64528189132530813039.png&quot; rel=&quot;nofollow&quot; target=&quot;_NEW&quot;&gt;\nhttp://www.shotpix.com/images/64528189132530813039.png&lt;/a&gt;\n &lt;a href=&quot;\nhttp://www.shotpix.com/images/80086893293944530473.png&quot; rel=&quot;nofollow&quot; target=&quot;_NEW&quot;&gt;\nhttp://www.shotpix.com/images/80086893293944530473.png&lt;/a&gt;\n &lt;a href=&quot;\nhttp://www.shotpix.com/images/10872131255689708601.png&quot; rel=&quot;nofollow&quot; target=&quot;_NEW&quot;&gt;\nhttp://www.shotpix.com/images/10872131255689708601.png&lt;/a&gt;\n\nIMDB: http://www.imdb.com/title/tt1272886/","torrent":{"xt":"urn:btih:3c0aaebbd55dc67ccb0b35365fb2b3389a10117d","amp;dn":"Small.Apartments.2012.DVDRiP.XviD.AC3-5.1-LTFS","amp;tr":["udp%3A%2F%2Ftracker.openbittorrent.com%3A80","udp%3A%2F%2Fopen.demonii.com%3A1337","udp%3A%2F%2Ftracker.coppersurfer.tk%3A6969","udp%3A%2F%2Fexodus.desync.com%3A6969"],"infoHash":"3c0aaebbd55dc67ccb0b35365fb2b3389a10117d","infoHashBuffer":{"type":"Buffer","data":[60,10,174,187,213,93,198,124,203,11,53,54,95,178,179,56,154,16,17,125]},"announce":[],"urlList":[]}}